<svg width="235" height="36" viewBox="0 0 235 36" fill="none" xmlns="http://www.w3.org/2000/svg">
<path d="M223.873 20.6223C223.967 22.513 225.637 23.8996 228.316 23.8996C230.585 23.8996 232.192 22.9228 232.192 21.4416C232.192 19.4248 230.428 19.2671 228.033 18.9836C224.44 18.5424 221.572 17.8175 221.572 14.4772C221.572 11.5464 224.251 9.62428 227.875 9.65565C231.53 9.68702 234.178 11.3887 234.43 14.7293H231.783C231.594 13.0907 230.081 11.8615 227.875 11.8615C225.669 11.8615 224.125 12.8069 224.125 14.2881C224.125 16.0528 225.826 16.2736 228.158 16.557C231.814 16.9982 234.745 17.6915 234.745 21.2525C234.745 24.2463 231.877 26.1054 228.316 26.1054C224.156 26.1054 221.289 24.1517 221.226 20.6223H223.873Z" fill="#262AFF"/>
<path d="M212.989 12.2349H210.089V9.87137H212.989V5.36523H215.573V9.87166H218.645L219.538 12.2352H215.573V21.6712C215.573 23.0264 216.045 23.5303 217.432 23.5303H218.644L219.539 25.8939H217.18C214.092 25.8939 212.989 24.5387 212.989 21.7026V12.2349Z" fill="#262AFF"/>
<path d="M208.834 16.9466V25.8962H206.25V17.104C206.25 13.7637 204.705 11.999 201.901 11.999C198.876 11.999 197.048 14.2366 197.048 17.8603V25.8962H194.464V9.82482H196.701L197.048 11.9993C197.993 10.7705 199.632 9.63574 202.342 9.63574C205.966 9.63574 208.834 11.6212 208.834 16.9466Z" fill="#262AFF"/>
<path d="M176.876 17.888C176.876 13.0034 179.964 9.66309 184.502 9.66309C189.04 9.66309 192.002 12.5309 192.128 17.2891C192.128 17.6359 192.097 18.014 192.065 18.3922H179.586V18.6126C179.68 21.6695 181.603 23.8123 184.66 23.8123C186.929 23.8123 188.694 22.6148 189.229 20.535H191.845C191.215 23.7493 188.568 26.1129 184.849 26.1129C180.028 26.1129 176.876 22.8039 176.876 17.888H176.876ZM189.355 16.2493C189.103 13.4762 187.212 11.932 184.533 11.932C182.17 11.932 179.996 13.6337 179.744 16.2493H189.355Z" fill="#262AFF"/>
<path d="M174.44 16.6862V25.9508H171.856V16.8436C171.856 13.6924 170.469 12.0537 168.043 12.0537C165.364 12.0537 163.725 14.0705 163.725 17.3478V25.9508H161.141V16.8436C161.141 13.6924 159.723 12.0537 157.265 12.0537C154.618 12.0537 153.01 14.2596 153.01 17.4739V25.9508H150.426V9.8795H152.664L153.01 12.0854C153.861 10.9196 155.216 9.69043 157.706 9.69043C159.944 9.69043 161.866 10.6988 162.78 12.7473C163.756 11.0142 165.49 9.69043 168.358 9.69043C171.698 9.69043 174.44 11.6128 174.44 16.6862Z" fill="#262AFF"/>
<path d="M133.314 9.86845H136.056L141.003 22.6942L145.793 9.86845H148.535L140.588 30.0233C139.579 32.6074 138.981 33.6158 136.712 33.6158H134.378V31.2522H135.924C137.405 31.2522 137.657 30.874 138.256 29.3614L139.586 26.0342L133.314 9.86816L133.314 9.86845Z" fill="#262AFF"/>
<path d="M134.377 23.539V25.9026H133.08C130.937 25.9026 130.212 24.9889 130.181 23.413C129.173 24.8625 127.565 26.0917 124.792 26.0917C121.263 26.0917 118.868 24.327 118.868 21.3962C118.868 18.1819 121.105 16.3856 125.328 16.3856H130.055V15.2825C130.055 13.2027 128.574 11.9422 126.053 11.9422C123.784 11.9422 122.271 13.0136 121.956 14.6522H119.372C119.75 11.501 122.303 9.6416 126.179 9.6416C130.275 9.6416 132.639 11.6901 132.639 15.4399V22.4673C132.639 23.318 132.954 23.5387 133.679 23.5387H134.377V23.539ZM130.055 18.5601H125.076C122.775 18.5601 121.483 19.4107 121.483 21.2388C121.483 22.8144 122.839 23.8858 124.981 23.8858C128.196 23.8858 130.055 22.0264 130.055 19.348V18.5603L130.055 18.5601Z" fill="#262AFF"/>
<path d="M117.168 17.9134C117.168 22.8293 113.891 26.1383 109.448 26.1383C106.738 26.1383 104.91 25.0355 103.933 23.4912V33.6455H101.349V9.87755H103.586L103.933 12.4616C105.004 10.9803 106.738 9.68848 109.448 9.68848C113.891 9.68848 117.169 12.6823 117.169 17.9134H117.168ZM114.521 17.9134C114.521 14.4153 112.378 11.989 109.195 11.989C106.012 11.989 103.901 14.4156 103.901 17.8503C103.901 21.2851 106.044 23.8377 109.195 23.8377C112.347 23.8377 114.521 21.4111 114.521 17.9134Z" fill="#262AFF"/>
<path d="M96.6175 3.9248H92.1685V26.0137H96.6175V3.9248Z" fill="#262AFF"/>
<path d="M89.7233 22.2577V26.0148H87.4509C85.1471 26.0148 84.4216 24.9105 84.4547 23.3645C83.3185 25.1632 81.6778 26.2047 79.153 26.2047C75.6508 26.2047 73.126 24.5318 73.126 21.4401C73.126 18.0002 75.7141 16.0438 80.5735 16.0438H83.7922V15.2529C83.7922 13.8019 82.7507 12.8551 80.8913 12.8551C79.155 12.8551 77.988 13.6439 77.8001 14.8428H73.5085C73.8242 11.6875 76.7272 9.60449 81.0185 9.60449C85.5622 9.60449 88.1817 11.6242 88.1817 15.5053V21.2484C88.1817 22.1003 88.5293 22.258 89.2232 22.258H89.7236L89.7233 22.2577ZM83.791 19.008H80.5404C78.6789 19.008 77.6061 19.7651 77.6061 21.1224C77.6061 22.258 78.5209 22.9838 80.0039 22.9838C82.3385 22.9838 83.7611 21.5328 83.7905 19.3219L83.791 19.008Z" fill="#262AFF"/>
<path d="M71.4097 17.8725C71.4097 22.8898 68.2538 26.2025 63.8681 26.2025C61.9128 26.2731 60.0482 25.3771 58.8817 23.8067L58.4403 26.0157H54.5591V3.9248H59.0081V11.845C60.2021 10.3792 62.0095 9.55144 63.8994 9.60459C68.2535 9.60459 71.4094 12.7285 71.4094 17.8725M66.8971 17.9038C66.8971 15.127 65.3197 13.2336 62.8893 13.2336C60.4588 13.2336 58.9448 15.127 58.9448 17.8722C58.9448 20.6174 60.4591 22.5738 62.8893 22.5738C65.3194 22.5738 66.8971 20.6804 66.8971 17.9035" fill="#262AFF"/>
<path d="M35.1094 17.9037C35.1094 12.9178 38.4861 9.60449 43.6609 9.60449C48.8357 9.60449 52.2127 12.9178 52.2127 17.9037C52.2127 22.8897 48.836 26.203 43.6612 26.203C38.4864 26.203 35.1094 22.8897 35.1094 17.9037ZM47.6998 17.9037C47.6998 15.1588 46.1538 13.2335 43.6606 13.2335C41.1674 13.2335 39.6528 15.1585 39.6528 17.9037C39.6528 20.6489 41.168 22.574 43.6606 22.574C46.1532 22.574 47.6998 20.6489 47.6998 17.9037Z" fill="#262AFF"/>
<path d="M32.7625 3.9248H28.3135V26.0137H32.7625V3.9248Z" fill="#262AFF"/>
<path d="M17.5853 26.0719C16.2055 26.2115 14.9028 25.8857 14.3853 25.4557C14.2267 25.3097 14.1197 25.116 14.0806 24.9042C14.0171 24.6068 14.1197 24.2983 14.349 24.0985C14.8278 23.7849 15.4134 23.6796 15.9713 23.807C16.4488 23.8688 16.9295 23.8995 17.4111 23.8992C22.2836 23.8992 25.4307 20.9475 25.4307 16.3783C25.4307 11.8091 22.2808 8.85547 17.4108 8.85547C12.5408 8.85547 9.39095 11.8083 9.39095 16.3778C9.39095 18.9231 10.3678 20.9659 12.0759 22.2769C11.2529 22.7722 10.6203 23.5302 10.2806 24.4287C9.99573 25.4521 10.3232 26.5482 11.1228 27.2477L11.3232 27.4423L11.0723 27.5685C9.20784 28.5058 8.30819 29.8154 8.53756 31.2579C8.56125 31.4014 8.59581 31.5427 8.64152 31.6807C9.47456 34.5571 13.6545 35.7574 17.7773 35.6287C20.1365 35.5548 26.669 34.5381 26.737 30.4722C26.8292 24.9014 20.4671 25.7882 17.9674 26.0368L17.5853 26.0719ZM17.4108 12.4821C19.4348 12.4821 20.6917 13.9757 20.6917 16.3791C20.6917 18.7826 19.4348 20.2762 17.4108 20.2762C15.3869 20.2762 14.1286 18.7826 14.1286 16.3791C14.1286 13.9757 15.3855 12.4821 17.4108 12.4821ZM14.3685 29.0526C14.4658 29.0395 14.596 29.02 14.7515 28.9963C17.4841 28.5924 21.2382 28.1881 22.29 29.3759C22.5749 29.7053 22.6618 30.1621 22.5175 30.5729C22.2128 31.6835 19.8166 32.1728 17.5675 32.1728C16.9736 32.174 16.3799 32.1377 15.7905 32.0639C13.9842 31.8287 12.9851 31.2721 12.9781 30.4965C12.9591 29.7189 13.936 29.1097 14.3705 29.0509" fill="#262AFF"/>
<path d="M21.954 5.62458C15.3542 3.21469 8.06447 6.61453 5.65454 13.2142C5.21456 14.4042 4.96456 15.6641 4.90457 16.9341C4.76457 19.6339 5.47453 22.3138 6.94448 24.5937C7.55446 25.5137 7.30447 26.7536 6.3845 27.3736C5.46453 27.9835 4.22457 27.7336 3.60459 26.8136C-1.64526 18.964 0.464693 8.35447 8.30446 3.10471C9.73442 2.14476 11.3044 1.41477 12.9543 0.924789C16.4342 -0.105162 20.1441 -0.0251455 23.564 1.1648C24.8039 1.59478 25.4639 2.95471 25.024 4.19466C24.594 5.4346 23.234 6.09456 21.994 5.65458L21.944 5.63459" fill="url(#paint0_linear_38233_26533)"/>
<path d="M21.954 5.62458C15.3542 3.21469 8.06447 6.61453 5.65454 13.2142C5.21456 14.4042 4.96456 15.6641 4.90457 16.9341C4.76457 19.6339 5.47453 22.3138 6.94448 24.5937C7.55446 25.5137 7.30447 26.7536 6.3845 27.3736C5.46453 27.9835 4.22457 27.7336 3.60459 26.8136C-1.64526 18.964 0.464693 8.35447 8.30446 3.10471C9.73442 2.14476 11.3044 1.41477 12.9543 0.924789C16.4342 -0.105162 20.1441 -0.0251455 23.564 1.1648C24.8039 1.59478 25.4639 2.95471 25.024 4.19466C24.594 5.4346 23.234 6.09456 21.994 5.65458L21.944 5.63459" fill="url(#paint1_linear_38233_26533)"/>
<path d="M21.954 5.62458C15.3542 3.21469 8.06447 6.61453 5.65454 13.2142C5.21456 14.4042 4.96456 15.6641 4.90457 16.9341C4.76457 19.6339 5.47453 22.3138 6.94448 24.5937C7.55446 25.5137 7.30447 26.7536 6.3845 27.3736C5.46453 27.9835 4.22457 27.7336 3.60459 26.8136C-1.64526 18.964 0.464693 8.35447 8.30446 3.10471C9.73442 2.14476 11.3044 1.41477 12.9543 0.924789C16.4342 -0.105162 20.1441 -0.0251455 23.564 1.1648C24.8039 1.59478 25.4639 2.95471 25.024 4.19466C24.594 5.4346 23.234 6.09456 21.994 5.65458L21.944 5.63459" fill="url(#paint2_linear_38233_26533)"/>
<path d="M26.2437 3.83496C26.2437 5.28489 25.0638 6.46484 23.6138 6.46484C22.1639 6.46484 20.9839 5.28489 20.9839 3.83496C20.9839 2.38503 22.1639 1.20508 23.6138 1.20508C25.0638 1.20508 26.2437 2.38503 26.2437 3.83496Z" fill="#262AFF"/>
<defs>
<linearGradient id="paint0_linear_38233_26533" x1="9.48489" y1="0.447501" x2="22.0597" y2="3.48865" gradientUnits="userSpaceOnUse">
<stop stop-color="#3FA3DE"/>
<stop offset="1" stop-color="#3FA3DE" stop-opacity="0"/>
</linearGradient>
<linearGradient id="paint1_linear_38233_26533" x1="5.83705" y1="23.6035" x2="15.8468" y2="10.9334" gradientUnits="userSpaceOnUse">
<stop stop-color="#262AFF"/>
<stop offset="1" stop-color="#262AFF" stop-opacity="0"/>
</linearGradient>
<linearGradient id="paint2_linear_38233_26533" x1="6.18904" y1="12.3453" x2="15.5937" y2="5.78454" gradientUnits="userSpaceOnUse">
<stop stop-color="#262AFF" stop-opacity="0.2"/>
<stop offset="1" stop-color="#262AFF" stop-opacity="0"/>
</linearGradient>
</defs>
</svg>
